<mxfile host="app.diagrams.net" modified="2023-12-11T12:02:02.941Z" agent="Mozilla/5.0 (Windows NT 10.0; Win64; x64) AppleWebKit/537.36 (KHTML, like Gecko) Chrome/119.0.0.0 Safari/537.36 Edg/119.0.0.0" etag="SnlOq-8yzWVCqPCz_bea" version="22.1.7" type="device">
  <diagram id="C5RBs43oDa-KdzZeNtuy" name="Page-1">
    <mxGraphModel dx="1386" dy="833" grid="1" gridSize="10" guides="1" tooltips="1" connect="1" arrows="1" fold="1" page="1" pageScale="1" pageWidth="827" pageHeight="1169" math="0" shadow="0">
      <root>
        <mxCell id="WIyWlLk6GJQsqaUBKTNV-0" />
        <mxCell id="WIyWlLk6GJQsqaUBKTNV-1" parent="WIyWlLk6GJQsqaUBKTNV-0" />
        <mxCell id="WIyWlLk6GJQsqaUBKTNV-4" value="Tak" style="rounded=0;html=1;jettySize=auto;orthogonalLoop=1;fontSize=11;endArrow=block;endFill=0;endSize=8;strokeWidth=1;shadow=0;labelBackgroundColor=none;edgeStyle=orthogonalEdgeStyle;" parent="WIyWlLk6GJQsqaUBKTNV-1" source="WIyWlLk6GJQsqaUBKTNV-6" target="WIyWlLk6GJQsqaUBKTNV-10" edge="1">
          <mxGeometry y="20" relative="1" as="geometry">
            <mxPoint as="offset" />
          </mxGeometry>
        </mxCell>
        <mxCell id="gHJDH7lQnEutCBeiMlI1-30" style="edgeStyle=orthogonalEdgeStyle;rounded=0;orthogonalLoop=1;jettySize=auto;html=1;endArrow=none;endFill=0;" edge="1" parent="WIyWlLk6GJQsqaUBKTNV-1" source="WIyWlLk6GJQsqaUBKTNV-6">
          <mxGeometry relative="1" as="geometry">
            <mxPoint x="440" y="20" as="targetPoint" />
          </mxGeometry>
        </mxCell>
        <mxCell id="WIyWlLk6GJQsqaUBKTNV-6" value="Czy funkcjonalność instancji wybrana jako: Slider" style="rhombus;whiteSpace=wrap;html=1;shadow=0;fontFamily=Helvetica;fontSize=12;align=center;strokeWidth=1;spacing=6;spacingTop=-4;" parent="WIyWlLk6GJQsqaUBKTNV-1" vertex="1">
          <mxGeometry x="200" y="49.97" width="160" height="130.03" as="geometry" />
        </mxCell>
        <mxCell id="WIyWlLk6GJQsqaUBKTNV-8" value="Nie" style="rounded=0;html=1;jettySize=auto;orthogonalLoop=1;fontSize=11;endArrow=block;endFill=0;endSize=8;strokeWidth=1;shadow=0;labelBackgroundColor=none;edgeStyle=orthogonalEdgeStyle;entryX=0.5;entryY=0;entryDx=0;entryDy=0;" parent="WIyWlLk6GJQsqaUBKTNV-1" source="WIyWlLk6GJQsqaUBKTNV-10" target="gHJDH7lQnEutCBeiMlI1-3" edge="1">
          <mxGeometry x="-0.2" y="20" relative="1" as="geometry">
            <mxPoint as="offset" />
            <mxPoint x="280" y="409.97" as="targetPoint" />
          </mxGeometry>
        </mxCell>
        <mxCell id="gHJDH7lQnEutCBeiMlI1-182" style="edgeStyle=orthogonalEdgeStyle;rounded=0;orthogonalLoop=1;jettySize=auto;html=1;entryX=0;entryY=0.5;entryDx=0;entryDy=0;" edge="1" parent="WIyWlLk6GJQsqaUBKTNV-1" source="WIyWlLk6GJQsqaUBKTNV-10" target="gHJDH7lQnEutCBeiMlI1-167">
          <mxGeometry relative="1" as="geometry" />
        </mxCell>
        <mxCell id="gHJDH7lQnEutCBeiMlI1-183" value="Tak" style="edgeLabel;html=1;align=center;verticalAlign=middle;resizable=0;points=[];" vertex="1" connectable="0" parent="gHJDH7lQnEutCBeiMlI1-182">
          <mxGeometry x="-0.8" y="-2" relative="1" as="geometry">
            <mxPoint x="1" y="-12" as="offset" />
          </mxGeometry>
        </mxCell>
        <mxCell id="gHJDH7lQnEutCBeiMlI1-184" value="State: 5" style="edgeLabel;html=1;align=center;verticalAlign=middle;resizable=0;points=[];" vertex="1" connectable="0" parent="gHJDH7lQnEutCBeiMlI1-182">
          <mxGeometry x="-0.7617" y="-1" relative="1" as="geometry">
            <mxPoint x="-11" y="9" as="offset" />
          </mxGeometry>
        </mxCell>
        <mxCell id="WIyWlLk6GJQsqaUBKTNV-10" value="Czy wystawiona komenda: Abort" style="rhombus;whiteSpace=wrap;html=1;shadow=0;fontFamily=Helvetica;fontSize=12;align=center;strokeWidth=1;spacing=6;spacingTop=-4;" parent="WIyWlLk6GJQsqaUBKTNV-1" vertex="1">
          <mxGeometry x="205" y="249.97000000000003" width="150" height="120.03" as="geometry" />
        </mxCell>
        <mxCell id="gHJDH7lQnEutCBeiMlI1-4" style="edgeStyle=orthogonalEdgeStyle;rounded=0;orthogonalLoop=1;jettySize=auto;html=1;endSize=8;endArrow=block;endFill=0;entryX=0.5;entryY=0;entryDx=0;entryDy=0;" edge="1" parent="WIyWlLk6GJQsqaUBKTNV-1" source="gHJDH7lQnEutCBeiMlI1-3" target="gHJDH7lQnEutCBeiMlI1-23">
          <mxGeometry relative="1" as="geometry">
            <mxPoint x="280" y="650" as="targetPoint" />
          </mxGeometry>
        </mxCell>
        <mxCell id="gHJDH7lQnEutCBeiMlI1-5" value="Nie" style="edgeLabel;html=1;align=center;verticalAlign=middle;resizable=0;points=[];" vertex="1" connectable="0" parent="gHJDH7lQnEutCBeiMlI1-4">
          <mxGeometry x="0.0288" y="-1" relative="1" as="geometry">
            <mxPoint x="21" y="-1" as="offset" />
          </mxGeometry>
        </mxCell>
        <mxCell id="gHJDH7lQnEutCBeiMlI1-7" style="edgeStyle=orthogonalEdgeStyle;rounded=0;orthogonalLoop=1;jettySize=auto;html=1;endSize=8;endArrow=classic;endFill=1;entryX=0;entryY=0.5;entryDx=0;entryDy=0;" edge="1" parent="WIyWlLk6GJQsqaUBKTNV-1" source="gHJDH7lQnEutCBeiMlI1-3" target="gHJDH7lQnEutCBeiMlI1-147">
          <mxGeometry relative="1" as="geometry">
            <mxPoint x="480" y="480.0150000000001" as="targetPoint" />
            <Array as="points">
              <mxPoint x="850" y="480" />
              <mxPoint x="850" y="773" />
              <mxPoint x="910" y="773" />
            </Array>
          </mxGeometry>
        </mxCell>
        <mxCell id="gHJDH7lQnEutCBeiMlI1-8" value="Tak" style="edgeLabel;html=1;align=center;verticalAlign=middle;resizable=0;points=[];" vertex="1" connectable="0" parent="gHJDH7lQnEutCBeiMlI1-7">
          <mxGeometry x="0.152" y="4" relative="1" as="geometry">
            <mxPoint x="-440" y="-19" as="offset" />
          </mxGeometry>
        </mxCell>
        <mxCell id="gHJDH7lQnEutCBeiMlI1-3" value="Czy wystawiona komenda: Stop" style="rhombus;whiteSpace=wrap;html=1;shadow=0;fontFamily=Helvetica;fontSize=12;align=center;strokeWidth=1;spacing=6;spacingTop=-4;" vertex="1" parent="WIyWlLk6GJQsqaUBKTNV-1">
          <mxGeometry x="205" y="420" width="150" height="120.03" as="geometry" />
        </mxCell>
        <mxCell id="gHJDH7lQnEutCBeiMlI1-20" value="State: 0" style="text;html=1;align=center;verticalAlign=middle;resizable=0;points=[];autosize=1;strokeColor=none;fillColor=none;" vertex="1" parent="WIyWlLk6GJQsqaUBKTNV-1">
          <mxGeometry x="220" y="590" width="60" height="30" as="geometry" />
        </mxCell>
        <mxCell id="gHJDH7lQnEutCBeiMlI1-25" style="edgeStyle=orthogonalEdgeStyle;rounded=0;orthogonalLoop=1;jettySize=auto;html=1;entryX=0.5;entryY=0;entryDx=0;entryDy=0;" edge="1" parent="WIyWlLk6GJQsqaUBKTNV-1" source="gHJDH7lQnEutCBeiMlI1-23" target="gHJDH7lQnEutCBeiMlI1-46">
          <mxGeometry relative="1" as="geometry">
            <mxPoint x="280" y="860" as="targetPoint" />
          </mxGeometry>
        </mxCell>
        <mxCell id="gHJDH7lQnEutCBeiMlI1-26" value="Tak" style="edgeLabel;html=1;align=center;verticalAlign=middle;resizable=0;points=[];" vertex="1" connectable="0" parent="gHJDH7lQnEutCBeiMlI1-25">
          <mxGeometry x="-0.1117" y="3" relative="1" as="geometry">
            <mxPoint x="17" as="offset" />
          </mxGeometry>
        </mxCell>
        <mxCell id="gHJDH7lQnEutCBeiMlI1-32" style="edgeStyle=orthogonalEdgeStyle;rounded=0;orthogonalLoop=1;jettySize=auto;html=1;entryX=0;entryY=0.5;entryDx=0;entryDy=0;" edge="1" parent="WIyWlLk6GJQsqaUBKTNV-1" source="gHJDH7lQnEutCBeiMlI1-23" target="gHJDH7lQnEutCBeiMlI1-61">
          <mxGeometry relative="1" as="geometry">
            <mxPoint x="520" y="730" as="targetPoint" />
          </mxGeometry>
        </mxCell>
        <mxCell id="gHJDH7lQnEutCBeiMlI1-65" value="Else" style="edgeLabel;html=1;align=center;verticalAlign=middle;resizable=0;points=[];" vertex="1" connectable="0" parent="gHJDH7lQnEutCBeiMlI1-32">
          <mxGeometry x="0.1149" y="4" relative="1" as="geometry">
            <mxPoint x="-8" y="-6" as="offset" />
          </mxGeometry>
        </mxCell>
        <mxCell id="gHJDH7lQnEutCBeiMlI1-23" value="Czujnik pozycji I1 (wsunięty) lub czujnik pozycji I2 (wysunięty) aktywny" style="rhombus;whiteSpace=wrap;html=1;" vertex="1" parent="WIyWlLk6GJQsqaUBKTNV-1">
          <mxGeometry x="177.5" y="660" width="205" height="140" as="geometry" />
        </mxCell>
        <mxCell id="gHJDH7lQnEutCBeiMlI1-29" value="" style="endArrow=classic;html=1;rounded=0;entryX=0.5;entryY=0;entryDx=0;entryDy=0;" edge="1" parent="WIyWlLk6GJQsqaUBKTNV-1" target="WIyWlLk6GJQsqaUBKTNV-6">
          <mxGeometry width="50" height="50" relative="1" as="geometry">
            <mxPoint x="280" y="20" as="sourcePoint" />
            <mxPoint x="439" y="40" as="targetPoint" />
          </mxGeometry>
        </mxCell>
        <mxCell id="gHJDH7lQnEutCBeiMlI1-31" value="" style="endArrow=none;html=1;rounded=0;" edge="1" parent="WIyWlLk6GJQsqaUBKTNV-1">
          <mxGeometry width="50" height="50" relative="1" as="geometry">
            <mxPoint x="280" y="20" as="sourcePoint" />
            <mxPoint x="440" y="20" as="targetPoint" />
          </mxGeometry>
        </mxCell>
        <mxCell id="gHJDH7lQnEutCBeiMlI1-38" value="State: 15" style="edgeLabel;html=1;align=center;verticalAlign=middle;resizable=0;points=[];" vertex="1" connectable="0" parent="WIyWlLk6GJQsqaUBKTNV-1">
          <mxGeometry x="414.00255946869834" y="494.99895057718254" as="geometry" />
        </mxCell>
        <mxCell id="gHJDH7lQnEutCBeiMlI1-44" style="edgeStyle=orthogonalEdgeStyle;rounded=0;orthogonalLoop=1;jettySize=auto;html=1;entryX=0;entryY=0.5;entryDx=0;entryDy=0;" edge="1" parent="WIyWlLk6GJQsqaUBKTNV-1" source="gHJDH7lQnEutCBeiMlI1-46" target="gHJDH7lQnEutCBeiMlI1-50">
          <mxGeometry relative="1" as="geometry">
            <mxPoint x="520" y="970" as="targetPoint" />
          </mxGeometry>
        </mxCell>
        <mxCell id="gHJDH7lQnEutCBeiMlI1-71" style="edgeStyle=orthogonalEdgeStyle;rounded=0;orthogonalLoop=1;jettySize=auto;html=1;entryX=0.5;entryY=0;entryDx=0;entryDy=0;" edge="1" parent="WIyWlLk6GJQsqaUBKTNV-1" source="gHJDH7lQnEutCBeiMlI1-46" target="gHJDH7lQnEutCBeiMlI1-70">
          <mxGeometry relative="1" as="geometry" />
        </mxCell>
        <mxCell id="gHJDH7lQnEutCBeiMlI1-72" value="State: 40" style="edgeLabel;html=1;align=center;verticalAlign=middle;resizable=0;points=[];" vertex="1" connectable="0" parent="gHJDH7lQnEutCBeiMlI1-71">
          <mxGeometry x="0.0963" y="-1" relative="1" as="geometry">
            <mxPoint x="-29" as="offset" />
          </mxGeometry>
        </mxCell>
        <mxCell id="gHJDH7lQnEutCBeiMlI1-46" value="Czy aktywny czujnik I2 (wysunięty)" style="rhombus;whiteSpace=wrap;html=1;" vertex="1" parent="WIyWlLk6GJQsqaUBKTNV-1">
          <mxGeometry x="177.5" y="900" width="205" height="140" as="geometry" />
        </mxCell>
        <mxCell id="gHJDH7lQnEutCBeiMlI1-185" style="edgeStyle=orthogonalEdgeStyle;rounded=0;orthogonalLoop=1;jettySize=auto;html=1;" edge="1" parent="WIyWlLk6GJQsqaUBKTNV-1" source="gHJDH7lQnEutCBeiMlI1-50">
          <mxGeometry relative="1" as="geometry">
            <mxPoint x="525" y="1090" as="targetPoint" />
          </mxGeometry>
        </mxCell>
        <mxCell id="gHJDH7lQnEutCBeiMlI1-50" value="Ustaw zmienną sprawdzającą położenie wysunięcia:&lt;br&gt;bSliderSide" style="rounded=0;whiteSpace=wrap;html=1;" vertex="1" parent="WIyWlLk6GJQsqaUBKTNV-1">
          <mxGeometry x="460" y="925" width="130" height="90" as="geometry" />
        </mxCell>
        <mxCell id="gHJDH7lQnEutCBeiMlI1-180" style="edgeStyle=orthogonalEdgeStyle;rounded=0;orthogonalLoop=1;jettySize=auto;html=1;" edge="1" parent="WIyWlLk6GJQsqaUBKTNV-1" source="gHJDH7lQnEutCBeiMlI1-61">
          <mxGeometry relative="1" as="geometry">
            <mxPoint x="1027" y="850" as="targetPoint" />
            <Array as="points">
              <mxPoint x="560" y="850" />
            </Array>
          </mxGeometry>
        </mxCell>
        <mxCell id="gHJDH7lQnEutCBeiMlI1-181" value="State: 20" style="edgeLabel;html=1;align=center;verticalAlign=middle;resizable=0;points=[];" vertex="1" connectable="0" parent="gHJDH7lQnEutCBeiMlI1-180">
          <mxGeometry x="-0.9417" y="-1" relative="1" as="geometry">
            <mxPoint x="-34" as="offset" />
          </mxGeometry>
        </mxCell>
        <mxCell id="gHJDH7lQnEutCBeiMlI1-61" value="Ustaw status:&lt;br&gt;Undefined" style="rounded=0;whiteSpace=wrap;html=1;" vertex="1" parent="WIyWlLk6GJQsqaUBKTNV-1">
          <mxGeometry x="500" y="700" width="120" height="60" as="geometry" />
        </mxCell>
        <mxCell id="gHJDH7lQnEutCBeiMlI1-68" value="State: 1" style="text;html=1;align=center;verticalAlign=middle;resizable=0;points=[];autosize=1;strokeColor=none;fillColor=none;" vertex="1" parent="WIyWlLk6GJQsqaUBKTNV-1">
          <mxGeometry x="220" y="830" width="60" height="30" as="geometry" />
        </mxCell>
        <mxCell id="gHJDH7lQnEutCBeiMlI1-75" style="edgeStyle=orthogonalEdgeStyle;rounded=0;orthogonalLoop=1;jettySize=auto;html=1;entryX=0.5;entryY=0;entryDx=0;entryDy=0;" edge="1" parent="WIyWlLk6GJQsqaUBKTNV-1" source="gHJDH7lQnEutCBeiMlI1-70" target="gHJDH7lQnEutCBeiMlI1-74">
          <mxGeometry relative="1" as="geometry" />
        </mxCell>
        <mxCell id="gHJDH7lQnEutCBeiMlI1-70" value="Ustaw status:&lt;br&gt;Idle" style="rounded=0;whiteSpace=wrap;html=1;" vertex="1" parent="WIyWlLk6GJQsqaUBKTNV-1">
          <mxGeometry x="220" y="1140" width="120" height="60" as="geometry" />
        </mxCell>
        <mxCell id="gHJDH7lQnEutCBeiMlI1-78" style="edgeStyle=orthogonalEdgeStyle;rounded=0;orthogonalLoop=1;jettySize=auto;html=1;entryX=0.5;entryY=0;entryDx=0;entryDy=0;" edge="1" parent="WIyWlLk6GJQsqaUBKTNV-1" source="gHJDH7lQnEutCBeiMlI1-74" target="gHJDH7lQnEutCBeiMlI1-77">
          <mxGeometry relative="1" as="geometry" />
        </mxCell>
        <mxCell id="gHJDH7lQnEutCBeiMlI1-79" value="State: 45" style="edgeLabel;html=1;align=center;verticalAlign=middle;resizable=0;points=[];" vertex="1" connectable="0" parent="gHJDH7lQnEutCBeiMlI1-78">
          <mxGeometry x="0.0589" y="1" relative="1" as="geometry">
            <mxPoint x="-31" as="offset" />
          </mxGeometry>
        </mxCell>
        <mxCell id="gHJDH7lQnEutCBeiMlI1-74" value="Czy wystawiona komenda: Start" style="rhombus;whiteSpace=wrap;html=1;shadow=0;fontFamily=Helvetica;fontSize=12;align=center;strokeWidth=1;spacing=6;spacingTop=-4;" vertex="1" parent="WIyWlLk6GJQsqaUBKTNV-1">
          <mxGeometry x="205" y="1270" width="150" height="120.03" as="geometry" />
        </mxCell>
        <mxCell id="gHJDH7lQnEutCBeiMlI1-82" style="edgeStyle=orthogonalEdgeStyle;rounded=0;orthogonalLoop=1;jettySize=auto;html=1;entryX=0.5;entryY=0;entryDx=0;entryDy=0;" edge="1" parent="WIyWlLk6GJQsqaUBKTNV-1" source="gHJDH7lQnEutCBeiMlI1-77" target="gHJDH7lQnEutCBeiMlI1-80">
          <mxGeometry relative="1" as="geometry" />
        </mxCell>
        <mxCell id="gHJDH7lQnEutCBeiMlI1-83" value="State: 50" style="edgeLabel;html=1;align=center;verticalAlign=middle;resizable=0;points=[];" vertex="1" connectable="0" parent="gHJDH7lQnEutCBeiMlI1-82">
          <mxGeometry x="-0.1056" y="-1" relative="1" as="geometry">
            <mxPoint x="-29" as="offset" />
          </mxGeometry>
        </mxCell>
        <mxCell id="gHJDH7lQnEutCBeiMlI1-77" value="Ustaw status:&lt;br&gt;Starting" style="rounded=0;whiteSpace=wrap;html=1;" vertex="1" parent="WIyWlLk6GJQsqaUBKTNV-1">
          <mxGeometry x="220" y="1480" width="120" height="60" as="geometry" />
        </mxCell>
        <mxCell id="gHJDH7lQnEutCBeiMlI1-86" style="edgeStyle=orthogonalEdgeStyle;rounded=0;orthogonalLoop=1;jettySize=auto;html=1;entryX=0.5;entryY=0;entryDx=0;entryDy=0;" edge="1" parent="WIyWlLk6GJQsqaUBKTNV-1" source="gHJDH7lQnEutCBeiMlI1-80" target="gHJDH7lQnEutCBeiMlI1-84">
          <mxGeometry relative="1" as="geometry" />
        </mxCell>
        <mxCell id="gHJDH7lQnEutCBeiMlI1-87" value="Nie" style="edgeLabel;html=1;align=center;verticalAlign=middle;resizable=0;points=[];" vertex="1" connectable="0" parent="gHJDH7lQnEutCBeiMlI1-86">
          <mxGeometry x="-0.3" y="-5" relative="1" as="geometry">
            <mxPoint x="-15" y="3" as="offset" />
          </mxGeometry>
        </mxCell>
        <mxCell id="gHJDH7lQnEutCBeiMlI1-89" style="edgeStyle=orthogonalEdgeStyle;rounded=0;orthogonalLoop=1;jettySize=auto;html=1;entryX=0;entryY=0.5;entryDx=0;entryDy=0;" edge="1" parent="WIyWlLk6GJQsqaUBKTNV-1" source="gHJDH7lQnEutCBeiMlI1-80" target="gHJDH7lQnEutCBeiMlI1-88">
          <mxGeometry relative="1" as="geometry" />
        </mxCell>
        <mxCell id="gHJDH7lQnEutCBeiMlI1-80" value="bSliderSide" style="rhombus;whiteSpace=wrap;html=1;" vertex="1" parent="WIyWlLk6GJQsqaUBKTNV-1">
          <mxGeometry x="225" y="1630" width="110" height="100" as="geometry" />
        </mxCell>
        <mxCell id="gHJDH7lQnEutCBeiMlI1-92" style="edgeStyle=orthogonalEdgeStyle;rounded=0;orthogonalLoop=1;jettySize=auto;html=1;entryX=0.5;entryY=0;entryDx=0;entryDy=0;" edge="1" parent="WIyWlLk6GJQsqaUBKTNV-1" source="gHJDH7lQnEutCBeiMlI1-84" target="gHJDH7lQnEutCBeiMlI1-91">
          <mxGeometry relative="1" as="geometry" />
        </mxCell>
        <mxCell id="gHJDH7lQnEutCBeiMlI1-95" value="State: 60" style="edgeLabel;html=1;align=center;verticalAlign=middle;resizable=0;points=[];" vertex="1" connectable="0" parent="gHJDH7lQnEutCBeiMlI1-92">
          <mxGeometry x="-0.4778" y="-1" relative="1" as="geometry">
            <mxPoint x="-29" y="27" as="offset" />
          </mxGeometry>
        </mxCell>
        <mxCell id="gHJDH7lQnEutCBeiMlI1-84" value="Włącz wyjście wysuń Q1" style="rounded=0;whiteSpace=wrap;html=1;" vertex="1" parent="WIyWlLk6GJQsqaUBKTNV-1">
          <mxGeometry x="220" y="1810" width="120" height="60" as="geometry" />
        </mxCell>
        <mxCell id="gHJDH7lQnEutCBeiMlI1-120" style="edgeStyle=orthogonalEdgeStyle;rounded=0;orthogonalLoop=1;jettySize=auto;html=1;" edge="1" parent="WIyWlLk6GJQsqaUBKTNV-1" source="gHJDH7lQnEutCBeiMlI1-88">
          <mxGeometry relative="1" as="geometry">
            <mxPoint x="280" y="1920" as="targetPoint" />
            <Array as="points">
              <mxPoint x="490" y="1920" />
            </Array>
          </mxGeometry>
        </mxCell>
        <mxCell id="gHJDH7lQnEutCBeiMlI1-88" value="Włącz wyjście wsuń Q2" style="rounded=0;whiteSpace=wrap;html=1;" vertex="1" parent="WIyWlLk6GJQsqaUBKTNV-1">
          <mxGeometry x="430" y="1650" width="120" height="60" as="geometry" />
        </mxCell>
        <mxCell id="gHJDH7lQnEutCBeiMlI1-98" style="edgeStyle=orthogonalEdgeStyle;rounded=0;orthogonalLoop=1;jettySize=auto;html=1;entryX=0.5;entryY=0;entryDx=0;entryDy=0;" edge="1" parent="WIyWlLk6GJQsqaUBKTNV-1" source="gHJDH7lQnEutCBeiMlI1-91" target="gHJDH7lQnEutCBeiMlI1-97">
          <mxGeometry relative="1" as="geometry" />
        </mxCell>
        <mxCell id="gHJDH7lQnEutCBeiMlI1-91" value="Ustaw status:&lt;br&gt;Execute" style="rounded=0;whiteSpace=wrap;html=1;" vertex="1" parent="WIyWlLk6GJQsqaUBKTNV-1">
          <mxGeometry x="220" y="1960" width="120" height="60" as="geometry" />
        </mxCell>
        <mxCell id="gHJDH7lQnEutCBeiMlI1-100" style="edgeStyle=orthogonalEdgeStyle;rounded=0;orthogonalLoop=1;jettySize=auto;html=1;entryX=0;entryY=0.5;entryDx=0;entryDy=0;" edge="1" parent="WIyWlLk6GJQsqaUBKTNV-1" source="gHJDH7lQnEutCBeiMlI1-97" target="gHJDH7lQnEutCBeiMlI1-99">
          <mxGeometry relative="1" as="geometry" />
        </mxCell>
        <mxCell id="gHJDH7lQnEutCBeiMlI1-131" value="Tak" style="edgeLabel;html=1;align=center;verticalAlign=middle;resizable=0;points=[];" vertex="1" connectable="0" parent="gHJDH7lQnEutCBeiMlI1-100">
          <mxGeometry x="-0.247" y="-1" relative="1" as="geometry">
            <mxPoint x="13" y="-11" as="offset" />
          </mxGeometry>
        </mxCell>
        <mxCell id="gHJDH7lQnEutCBeiMlI1-102" style="edgeStyle=orthogonalEdgeStyle;rounded=0;orthogonalLoop=1;jettySize=auto;html=1;entryX=0.5;entryY=0;entryDx=0;entryDy=0;" edge="1" parent="WIyWlLk6GJQsqaUBKTNV-1" source="gHJDH7lQnEutCBeiMlI1-97" target="gHJDH7lQnEutCBeiMlI1-101">
          <mxGeometry relative="1" as="geometry" />
        </mxCell>
        <mxCell id="gHJDH7lQnEutCBeiMlI1-97" value="Czy wystawiona komenda: Hold" style="rhombus;whiteSpace=wrap;html=1;shadow=0;fontFamily=Helvetica;fontSize=12;align=center;strokeWidth=1;spacing=6;spacingTop=-4;" vertex="1" parent="WIyWlLk6GJQsqaUBKTNV-1">
          <mxGeometry x="205" y="2070" width="150" height="120.03" as="geometry" />
        </mxCell>
        <mxCell id="gHJDH7lQnEutCBeiMlI1-122" style="edgeStyle=orthogonalEdgeStyle;rounded=0;orthogonalLoop=1;jettySize=auto;html=1;entryX=0;entryY=0.5;entryDx=0;entryDy=0;" edge="1" parent="WIyWlLk6GJQsqaUBKTNV-1" source="gHJDH7lQnEutCBeiMlI1-99" target="gHJDH7lQnEutCBeiMlI1-121">
          <mxGeometry relative="1" as="geometry">
            <Array as="points">
              <mxPoint x="850" y="2130" />
              <mxPoint x="850" y="1840" />
            </Array>
          </mxGeometry>
        </mxCell>
        <mxCell id="gHJDH7lQnEutCBeiMlI1-123" value="State: 200" style="edgeLabel;html=1;align=center;verticalAlign=middle;resizable=0;points=[];" vertex="1" connectable="0" parent="gHJDH7lQnEutCBeiMlI1-122">
          <mxGeometry x="-0.5415" y="2" relative="1" as="geometry">
            <mxPoint x="-79" y="-8" as="offset" />
          </mxGeometry>
        </mxCell>
        <mxCell id="gHJDH7lQnEutCBeiMlI1-99" value="Ustaw status:&lt;br&gt;Holding" style="rounded=0;whiteSpace=wrap;html=1;" vertex="1" parent="WIyWlLk6GJQsqaUBKTNV-1">
          <mxGeometry x="440" y="2100.02" width="120" height="60" as="geometry" />
        </mxCell>
        <mxCell id="gHJDH7lQnEutCBeiMlI1-104" style="edgeStyle=orthogonalEdgeStyle;rounded=0;orthogonalLoop=1;jettySize=auto;html=1;entryX=0;entryY=0.5;entryDx=0;entryDy=0;" edge="1" parent="WIyWlLk6GJQsqaUBKTNV-1" source="gHJDH7lQnEutCBeiMlI1-101" target="gHJDH7lQnEutCBeiMlI1-103">
          <mxGeometry relative="1" as="geometry" />
        </mxCell>
        <mxCell id="gHJDH7lQnEutCBeiMlI1-130" value="Tak" style="edgeLabel;html=1;align=center;verticalAlign=middle;resizable=0;points=[];" vertex="1" connectable="0" parent="gHJDH7lQnEutCBeiMlI1-104">
          <mxGeometry x="-0.0117" y="1" relative="1" as="geometry">
            <mxPoint y="-9" as="offset" />
          </mxGeometry>
        </mxCell>
        <mxCell id="gHJDH7lQnEutCBeiMlI1-106" style="edgeStyle=orthogonalEdgeStyle;rounded=0;orthogonalLoop=1;jettySize=auto;html=1;entryX=0.5;entryY=0;entryDx=0;entryDy=0;" edge="1" parent="WIyWlLk6GJQsqaUBKTNV-1" source="gHJDH7lQnEutCBeiMlI1-101" target="gHJDH7lQnEutCBeiMlI1-105">
          <mxGeometry relative="1" as="geometry" />
        </mxCell>
        <mxCell id="gHJDH7lQnEutCBeiMlI1-101" value="Czy wystawiona komenda: Suspend" style="rhombus;whiteSpace=wrap;html=1;shadow=0;fontFamily=Helvetica;fontSize=12;align=center;strokeWidth=1;spacing=6;spacingTop=-4;" vertex="1" parent="WIyWlLk6GJQsqaUBKTNV-1">
          <mxGeometry x="205" y="2230" width="150" height="120.03" as="geometry" />
        </mxCell>
        <mxCell id="gHJDH7lQnEutCBeiMlI1-140" style="edgeStyle=orthogonalEdgeStyle;rounded=0;orthogonalLoop=1;jettySize=auto;html=1;entryX=0;entryY=0.5;entryDx=0;entryDy=0;" edge="1" parent="WIyWlLk6GJQsqaUBKTNV-1" source="gHJDH7lQnEutCBeiMlI1-103" target="gHJDH7lQnEutCBeiMlI1-135">
          <mxGeometry relative="1" as="geometry" />
        </mxCell>
        <mxCell id="gHJDH7lQnEutCBeiMlI1-141" value="State: 300" style="edgeLabel;html=1;align=center;verticalAlign=middle;resizable=0;points=[];" vertex="1" connectable="0" parent="gHJDH7lQnEutCBeiMlI1-140">
          <mxGeometry x="-0.5676" y="2" relative="1" as="geometry">
            <mxPoint x="-6" y="-8" as="offset" />
          </mxGeometry>
        </mxCell>
        <mxCell id="gHJDH7lQnEutCBeiMlI1-103" value="Ustaw status:&lt;br&gt;Suspending" style="rounded=0;whiteSpace=wrap;html=1;" vertex="1" parent="WIyWlLk6GJQsqaUBKTNV-1">
          <mxGeometry x="440" y="2260.01" width="120" height="60" as="geometry" />
        </mxCell>
        <mxCell id="gHJDH7lQnEutCBeiMlI1-109" style="edgeStyle=orthogonalEdgeStyle;rounded=0;orthogonalLoop=1;jettySize=auto;html=1;entryX=0;entryY=0.5;entryDx=0;entryDy=0;" edge="1" parent="WIyWlLk6GJQsqaUBKTNV-1" source="gHJDH7lQnEutCBeiMlI1-105" target="gHJDH7lQnEutCBeiMlI1-108">
          <mxGeometry relative="1" as="geometry" />
        </mxCell>
        <mxCell id="gHJDH7lQnEutCBeiMlI1-132" value="Tak" style="edgeLabel;html=1;align=center;verticalAlign=middle;resizable=0;points=[];" vertex="1" connectable="0" parent="gHJDH7lQnEutCBeiMlI1-109">
          <mxGeometry x="-0.0839" y="-1" relative="1" as="geometry">
            <mxPoint x="-3" y="-11" as="offset" />
          </mxGeometry>
        </mxCell>
        <mxCell id="gHJDH7lQnEutCBeiMlI1-113" style="edgeStyle=orthogonalEdgeStyle;rounded=0;orthogonalLoop=1;jettySize=auto;html=1;entryX=0.5;entryY=0;entryDx=0;entryDy=0;" edge="1" parent="WIyWlLk6GJQsqaUBKTNV-1" source="gHJDH7lQnEutCBeiMlI1-105" target="gHJDH7lQnEutCBeiMlI1-111">
          <mxGeometry relative="1" as="geometry" />
        </mxCell>
        <mxCell id="gHJDH7lQnEutCBeiMlI1-105" value="Czujnik pozycji I1 (wsunięty) i&lt;br&gt;wyjście wsuń Q2 aktywne" style="rhombus;whiteSpace=wrap;html=1;" vertex="1" parent="WIyWlLk6GJQsqaUBKTNV-1">
          <mxGeometry x="177.5" y="2410" width="205" height="140" as="geometry" />
        </mxCell>
        <mxCell id="gHJDH7lQnEutCBeiMlI1-116" style="edgeStyle=orthogonalEdgeStyle;rounded=0;orthogonalLoop=1;jettySize=auto;html=1;" edge="1" parent="WIyWlLk6GJQsqaUBKTNV-1" source="gHJDH7lQnEutCBeiMlI1-108">
          <mxGeometry relative="1" as="geometry">
            <mxPoint x="730" y="2480" as="targetPoint" />
          </mxGeometry>
        </mxCell>
        <mxCell id="gHJDH7lQnEutCBeiMlI1-119" value="State: 50" style="edgeLabel;html=1;align=center;verticalAlign=middle;resizable=0;points=[];" vertex="1" connectable="0" parent="gHJDH7lQnEutCBeiMlI1-116">
          <mxGeometry x="0.0352" y="2" relative="1" as="geometry">
            <mxPoint y="-8" as="offset" />
          </mxGeometry>
        </mxCell>
        <mxCell id="gHJDH7lQnEutCBeiMlI1-108" value="Wyłącz wyjście wsuń Q2 oraz&lt;br&gt;ustaw bSliderSide na false" style="rounded=0;whiteSpace=wrap;html=1;" vertex="1" parent="WIyWlLk6GJQsqaUBKTNV-1">
          <mxGeometry x="460" y="2450" width="170" height="60" as="geometry" />
        </mxCell>
        <mxCell id="gHJDH7lQnEutCBeiMlI1-110" style="edgeStyle=orthogonalEdgeStyle;rounded=0;orthogonalLoop=1;jettySize=auto;html=1;entryX=0;entryY=0.5;entryDx=0;entryDy=0;" edge="1" parent="WIyWlLk6GJQsqaUBKTNV-1" source="gHJDH7lQnEutCBeiMlI1-111" target="gHJDH7lQnEutCBeiMlI1-112">
          <mxGeometry relative="1" as="geometry" />
        </mxCell>
        <mxCell id="gHJDH7lQnEutCBeiMlI1-133" value="Tak" style="edgeLabel;html=1;align=center;verticalAlign=middle;resizable=0;points=[];" vertex="1" connectable="0" parent="gHJDH7lQnEutCBeiMlI1-110">
          <mxGeometry x="-0.0323" relative="1" as="geometry">
            <mxPoint x="1" y="-10" as="offset" />
          </mxGeometry>
        </mxCell>
        <mxCell id="gHJDH7lQnEutCBeiMlI1-111" value="Czujnik pozycji I2 (wysunięty) i wyjście wysuń Q1 aktywne" style="rhombus;whiteSpace=wrap;html=1;" vertex="1" parent="WIyWlLk6GJQsqaUBKTNV-1">
          <mxGeometry x="177.5" y="2600" width="205" height="140" as="geometry" />
        </mxCell>
        <mxCell id="gHJDH7lQnEutCBeiMlI1-117" style="edgeStyle=orthogonalEdgeStyle;rounded=0;orthogonalLoop=1;jettySize=auto;html=1;" edge="1" parent="WIyWlLk6GJQsqaUBKTNV-1" source="gHJDH7lQnEutCBeiMlI1-112">
          <mxGeometry relative="1" as="geometry">
            <mxPoint x="280" y="1230" as="targetPoint" />
            <Array as="points">
              <mxPoint x="730" y="2670" />
              <mxPoint x="730" y="1230" />
              <mxPoint x="280" y="1230" />
            </Array>
          </mxGeometry>
        </mxCell>
        <mxCell id="gHJDH7lQnEutCBeiMlI1-118" value="State: 50" style="edgeLabel;html=1;align=center;verticalAlign=middle;resizable=0;points=[];" vertex="1" connectable="0" parent="gHJDH7lQnEutCBeiMlI1-117">
          <mxGeometry x="0.1999" y="-2" relative="1" as="geometry">
            <mxPoint x="-52" y="1084" as="offset" />
          </mxGeometry>
        </mxCell>
        <mxCell id="gHJDH7lQnEutCBeiMlI1-112" value="Wyłącz wyjście wysuń Q1 oraz&lt;br&gt;ustaw bSliderSide na true" style="rounded=0;whiteSpace=wrap;html=1;" vertex="1" parent="WIyWlLk6GJQsqaUBKTNV-1">
          <mxGeometry x="460" y="2640" width="170" height="60" as="geometry" />
        </mxCell>
        <mxCell id="gHJDH7lQnEutCBeiMlI1-127" style="edgeStyle=orthogonalEdgeStyle;rounded=0;orthogonalLoop=1;jettySize=auto;html=1;entryX=0.5;entryY=0;entryDx=0;entryDy=0;" edge="1" parent="WIyWlLk6GJQsqaUBKTNV-1" source="gHJDH7lQnEutCBeiMlI1-121" target="gHJDH7lQnEutCBeiMlI1-125">
          <mxGeometry relative="1" as="geometry" />
        </mxCell>
        <mxCell id="gHJDH7lQnEutCBeiMlI1-121" value="Ustaw status: Held,&lt;br&gt;ustaw wyjścia Q1 i Q2 na false" style="rounded=0;whiteSpace=wrap;html=1;" vertex="1" parent="WIyWlLk6GJQsqaUBKTNV-1">
          <mxGeometry x="960" y="1810" width="180" height="60" as="geometry" />
        </mxCell>
        <mxCell id="gHJDH7lQnEutCBeiMlI1-128" style="edgeStyle=orthogonalEdgeStyle;rounded=0;orthogonalLoop=1;jettySize=auto;html=1;entryX=0.5;entryY=0;entryDx=0;entryDy=0;" edge="1" parent="WIyWlLk6GJQsqaUBKTNV-1" source="gHJDH7lQnEutCBeiMlI1-125" target="gHJDH7lQnEutCBeiMlI1-126">
          <mxGeometry relative="1" as="geometry" />
        </mxCell>
        <mxCell id="gHJDH7lQnEutCBeiMlI1-129" value="Tak" style="edgeLabel;html=1;align=center;verticalAlign=middle;resizable=0;points=[];" vertex="1" connectable="0" parent="gHJDH7lQnEutCBeiMlI1-128">
          <mxGeometry x="-0.2407" y="-1" relative="1" as="geometry">
            <mxPoint x="21" y="1" as="offset" />
          </mxGeometry>
        </mxCell>
        <mxCell id="gHJDH7lQnEutCBeiMlI1-125" value="Czy wystawiona komenda: Unhold" style="rhombus;whiteSpace=wrap;html=1;shadow=0;fontFamily=Helvetica;fontSize=12;align=center;strokeWidth=1;spacing=6;spacingTop=-4;" vertex="1" parent="WIyWlLk6GJQsqaUBKTNV-1">
          <mxGeometry x="975" y="1919.98" width="150" height="120.03" as="geometry" />
        </mxCell>
        <mxCell id="gHJDH7lQnEutCBeiMlI1-142" style="edgeStyle=orthogonalEdgeStyle;rounded=0;orthogonalLoop=1;jettySize=auto;html=1;" edge="1" parent="WIyWlLk6GJQsqaUBKTNV-1" source="gHJDH7lQnEutCBeiMlI1-126">
          <mxGeometry relative="1" as="geometry">
            <mxPoint x="730" y="2210" as="targetPoint" />
            <Array as="points">
              <mxPoint x="1050" y="2210" />
            </Array>
          </mxGeometry>
        </mxCell>
        <mxCell id="gHJDH7lQnEutCBeiMlI1-143" value="State: 50" style="edgeLabel;html=1;align=center;verticalAlign=middle;resizable=0;points=[];" vertex="1" connectable="0" parent="gHJDH7lQnEutCBeiMlI1-142">
          <mxGeometry x="-0.822" relative="1" as="geometry">
            <mxPoint x="-30" y="-4" as="offset" />
          </mxGeometry>
        </mxCell>
        <mxCell id="gHJDH7lQnEutCBeiMlI1-126" value="Ustaw status:&lt;br&gt;Unholding" style="rounded=0;whiteSpace=wrap;html=1;" vertex="1" parent="WIyWlLk6GJQsqaUBKTNV-1">
          <mxGeometry x="990" y="2089.98" width="120" height="60" as="geometry" />
        </mxCell>
        <mxCell id="gHJDH7lQnEutCBeiMlI1-134" style="edgeStyle=orthogonalEdgeStyle;rounded=0;orthogonalLoop=1;jettySize=auto;html=1;entryX=0.5;entryY=0;entryDx=0;entryDy=0;" edge="1" parent="WIyWlLk6GJQsqaUBKTNV-1" source="gHJDH7lQnEutCBeiMlI1-135" target="gHJDH7lQnEutCBeiMlI1-138">
          <mxGeometry relative="1" as="geometry" />
        </mxCell>
        <mxCell id="gHJDH7lQnEutCBeiMlI1-135" value="Ustaw status: Suspended,&lt;br&gt;ustaw wyjścia Q1 i Q2 na false" style="rounded=0;whiteSpace=wrap;html=1;" vertex="1" parent="WIyWlLk6GJQsqaUBKTNV-1">
          <mxGeometry x="960" y="2260.01" width="180" height="60" as="geometry" />
        </mxCell>
        <mxCell id="gHJDH7lQnEutCBeiMlI1-136" style="edgeStyle=orthogonalEdgeStyle;rounded=0;orthogonalLoop=1;jettySize=auto;html=1;entryX=0.5;entryY=0;entryDx=0;entryDy=0;" edge="1" parent="WIyWlLk6GJQsqaUBKTNV-1" source="gHJDH7lQnEutCBeiMlI1-138" target="gHJDH7lQnEutCBeiMlI1-139">
          <mxGeometry relative="1" as="geometry" />
        </mxCell>
        <mxCell id="gHJDH7lQnEutCBeiMlI1-137" value="Tak" style="edgeLabel;html=1;align=center;verticalAlign=middle;resizable=0;points=[];" vertex="1" connectable="0" parent="gHJDH7lQnEutCBeiMlI1-136">
          <mxGeometry x="-0.2407" y="-1" relative="1" as="geometry">
            <mxPoint x="21" y="1" as="offset" />
          </mxGeometry>
        </mxCell>
        <mxCell id="gHJDH7lQnEutCBeiMlI1-138" value="Czy wystawiona komenda: Unsuspend" style="rhombus;whiteSpace=wrap;html=1;shadow=0;fontFamily=Helvetica;fontSize=12;align=center;strokeWidth=1;spacing=6;spacingTop=-4;" vertex="1" parent="WIyWlLk6GJQsqaUBKTNV-1">
          <mxGeometry x="975" y="2369.99" width="150" height="120.03" as="geometry" />
        </mxCell>
        <mxCell id="gHJDH7lQnEutCBeiMlI1-144" style="edgeStyle=orthogonalEdgeStyle;rounded=0;orthogonalLoop=1;jettySize=auto;html=1;" edge="1" parent="WIyWlLk6GJQsqaUBKTNV-1" source="gHJDH7lQnEutCBeiMlI1-139">
          <mxGeometry relative="1" as="geometry">
            <mxPoint x="730" y="2670" as="targetPoint" />
            <Array as="points">
              <mxPoint x="1050" y="2670" />
            </Array>
          </mxGeometry>
        </mxCell>
        <mxCell id="gHJDH7lQnEutCBeiMlI1-145" value="State: 50" style="edgeLabel;html=1;align=center;verticalAlign=middle;resizable=0;points=[];" vertex="1" connectable="0" parent="gHJDH7lQnEutCBeiMlI1-144">
          <mxGeometry x="-0.8344" y="-3" relative="1" as="geometry">
            <mxPoint x="-27" as="offset" />
          </mxGeometry>
        </mxCell>
        <mxCell id="gHJDH7lQnEutCBeiMlI1-139" value="Ustaw status:&lt;br&gt;Unsuspend" style="rounded=0;whiteSpace=wrap;html=1;" vertex="1" parent="WIyWlLk6GJQsqaUBKTNV-1">
          <mxGeometry x="990" y="2539.99" width="120" height="60" as="geometry" />
        </mxCell>
        <mxCell id="gHJDH7lQnEutCBeiMlI1-149" style="edgeStyle=orthogonalEdgeStyle;rounded=0;orthogonalLoop=1;jettySize=auto;html=1;entryX=0.5;entryY=0;entryDx=0;entryDy=0;" edge="1" parent="WIyWlLk6GJQsqaUBKTNV-1" source="gHJDH7lQnEutCBeiMlI1-147" target="gHJDH7lQnEutCBeiMlI1-148">
          <mxGeometry relative="1" as="geometry" />
        </mxCell>
        <mxCell id="gHJDH7lQnEutCBeiMlI1-150" value="State: 20" style="edgeLabel;html=1;align=center;verticalAlign=middle;resizable=0;points=[];" vertex="1" connectable="0" parent="gHJDH7lQnEutCBeiMlI1-149">
          <mxGeometry x="-0.079" y="3" relative="1" as="geometry">
            <mxPoint x="-36" y="-19" as="offset" />
          </mxGeometry>
        </mxCell>
        <mxCell id="gHJDH7lQnEutCBeiMlI1-147" value="Ustaw status: Stopping,&lt;br&gt;ustaw wyjścia Q1 i Q2 na false" style="rounded=0;whiteSpace=wrap;html=1;" vertex="1" parent="WIyWlLk6GJQsqaUBKTNV-1">
          <mxGeometry x="937.54" y="742.5" width="180" height="60" as="geometry" />
        </mxCell>
        <mxCell id="gHJDH7lQnEutCBeiMlI1-153" style="edgeStyle=orthogonalEdgeStyle;rounded=0;orthogonalLoop=1;jettySize=auto;html=1;entryX=0.5;entryY=0;entryDx=0;entryDy=0;" edge="1" parent="WIyWlLk6GJQsqaUBKTNV-1" source="gHJDH7lQnEutCBeiMlI1-148" target="gHJDH7lQnEutCBeiMlI1-152">
          <mxGeometry relative="1" as="geometry" />
        </mxCell>
        <mxCell id="gHJDH7lQnEutCBeiMlI1-154" value="State: 30" style="edgeLabel;html=1;align=center;verticalAlign=middle;resizable=0;points=[];" vertex="1" connectable="0" parent="gHJDH7lQnEutCBeiMlI1-153">
          <mxGeometry x="0.0037" y="3" relative="1" as="geometry">
            <mxPoint x="-33" y="5" as="offset" />
          </mxGeometry>
        </mxCell>
        <mxCell id="gHJDH7lQnEutCBeiMlI1-148" value="Ustaw status:&lt;br&gt;Stopped" style="rounded=0;whiteSpace=wrap;html=1;" vertex="1" parent="WIyWlLk6GJQsqaUBKTNV-1">
          <mxGeometry x="967.54" y="882.51" width="120" height="60" as="geometry" />
        </mxCell>
        <mxCell id="gHJDH7lQnEutCBeiMlI1-156" style="edgeStyle=orthogonalEdgeStyle;rounded=0;orthogonalLoop=1;jettySize=auto;html=1;entryX=0.5;entryY=0;entryDx=0;entryDy=0;" edge="1" parent="WIyWlLk6GJQsqaUBKTNV-1" source="gHJDH7lQnEutCBeiMlI1-152" target="gHJDH7lQnEutCBeiMlI1-158">
          <mxGeometry relative="1" as="geometry">
            <mxPoint x="1027.54" y="1202.5" as="targetPoint" />
          </mxGeometry>
        </mxCell>
        <mxCell id="gHJDH7lQnEutCBeiMlI1-157" value="Tak" style="edgeLabel;html=1;align=center;verticalAlign=middle;resizable=0;points=[];" vertex="1" connectable="0" parent="gHJDH7lQnEutCBeiMlI1-156">
          <mxGeometry x="-0.0425" y="-2" relative="1" as="geometry">
            <mxPoint x="22" y="-4" as="offset" />
          </mxGeometry>
        </mxCell>
        <mxCell id="gHJDH7lQnEutCBeiMlI1-152" value="Czy wystawiona komenda: Reset" style="rhombus;whiteSpace=wrap;html=1;shadow=0;fontFamily=Helvetica;fontSize=12;align=center;strokeWidth=1;spacing=6;spacingTop=-4;" vertex="1" parent="WIyWlLk6GJQsqaUBKTNV-1">
          <mxGeometry x="952.54" y="1032.51" width="150" height="120.03" as="geometry" />
        </mxCell>
        <mxCell id="gHJDH7lQnEutCBeiMlI1-162" style="edgeStyle=orthogonalEdgeStyle;rounded=0;orthogonalLoop=1;jettySize=auto;html=1;entryX=0.5;entryY=0;entryDx=0;entryDy=0;" edge="1" parent="WIyWlLk6GJQsqaUBKTNV-1" source="gHJDH7lQnEutCBeiMlI1-158" target="gHJDH7lQnEutCBeiMlI1-161">
          <mxGeometry relative="1" as="geometry" />
        </mxCell>
        <mxCell id="gHJDH7lQnEutCBeiMlI1-163" value="State: 35" style="edgeLabel;html=1;align=center;verticalAlign=middle;resizable=0;points=[];" vertex="1" connectable="0" parent="gHJDH7lQnEutCBeiMlI1-162">
          <mxGeometry x="0.0052" y="-6" relative="1" as="geometry">
            <mxPoint x="-24" as="offset" />
          </mxGeometry>
        </mxCell>
        <mxCell id="gHJDH7lQnEutCBeiMlI1-158" value="Ustaw status: Resetting,&lt;br&gt;ustaw wyjście Q2 na true aby powrócić to pozycji 1" style="rounded=0;whiteSpace=wrap;html=1;" vertex="1" parent="WIyWlLk6GJQsqaUBKTNV-1">
          <mxGeometry x="937.54" y="1222.5000000000002" width="180" height="60" as="geometry" />
        </mxCell>
        <mxCell id="gHJDH7lQnEutCBeiMlI1-165" style="edgeStyle=orthogonalEdgeStyle;rounded=0;orthogonalLoop=1;jettySize=auto;html=1;entryX=0.5;entryY=0;entryDx=0;entryDy=0;" edge="1" parent="WIyWlLk6GJQsqaUBKTNV-1" source="gHJDH7lQnEutCBeiMlI1-161" target="gHJDH7lQnEutCBeiMlI1-164">
          <mxGeometry relative="1" as="geometry" />
        </mxCell>
        <mxCell id="gHJDH7lQnEutCBeiMlI1-166" value="Tak" style="edgeLabel;html=1;align=center;verticalAlign=middle;resizable=0;points=[];" vertex="1" connectable="0" parent="gHJDH7lQnEutCBeiMlI1-165">
          <mxGeometry x="-0.0387" y="2" relative="1" as="geometry">
            <mxPoint x="18" as="offset" />
          </mxGeometry>
        </mxCell>
        <mxCell id="gHJDH7lQnEutCBeiMlI1-161" value="Czy aktywny czujnik I1 (wsunięty)" style="rhombus;whiteSpace=wrap;html=1;" vertex="1" parent="WIyWlLk6GJQsqaUBKTNV-1">
          <mxGeometry x="925.04" y="1332.5" width="205" height="140" as="geometry" />
        </mxCell>
        <mxCell id="gHJDH7lQnEutCBeiMlI1-178" style="edgeStyle=orthogonalEdgeStyle;rounded=0;orthogonalLoop=1;jettySize=auto;html=1;exitX=0;exitY=0.5;exitDx=0;exitDy=0;" edge="1" parent="WIyWlLk6GJQsqaUBKTNV-1" source="gHJDH7lQnEutCBeiMlI1-164">
          <mxGeometry relative="1" as="geometry">
            <mxPoint x="280" y="1090" as="targetPoint" />
            <mxPoint x="920" y="1540" as="sourcePoint" />
            <Array as="points">
              <mxPoint x="850" y="1557" />
              <mxPoint x="850" y="1090" />
            </Array>
          </mxGeometry>
        </mxCell>
        <mxCell id="gHJDH7lQnEutCBeiMlI1-179" value="State: 40" style="edgeLabel;html=1;align=center;verticalAlign=middle;resizable=0;points=[];" vertex="1" connectable="0" parent="gHJDH7lQnEutCBeiMlI1-178">
          <mxGeometry x="-0.9581" y="-1" relative="1" as="geometry">
            <mxPoint x="-14" y="13" as="offset" />
          </mxGeometry>
        </mxCell>
        <mxCell id="gHJDH7lQnEutCBeiMlI1-164" value="Ustaw wyjście Q2 na false&lt;br&gt;oraz&lt;br&gt;bSliderSide na false" style="rounded=0;whiteSpace=wrap;html=1;" vertex="1" parent="WIyWlLk6GJQsqaUBKTNV-1">
          <mxGeometry x="932.54" y="1527.5" width="190" height="60" as="geometry" />
        </mxCell>
        <mxCell id="gHJDH7lQnEutCBeiMlI1-169" style="edgeStyle=orthogonalEdgeStyle;rounded=0;orthogonalLoop=1;jettySize=auto;html=1;entryX=0.5;entryY=0;entryDx=0;entryDy=0;" edge="1" parent="WIyWlLk6GJQsqaUBKTNV-1" source="gHJDH7lQnEutCBeiMlI1-167" target="gHJDH7lQnEutCBeiMlI1-168">
          <mxGeometry relative="1" as="geometry" />
        </mxCell>
        <mxCell id="gHJDH7lQnEutCBeiMlI1-170" value="State: 10" style="edgeLabel;html=1;align=center;verticalAlign=middle;resizable=0;points=[];" vertex="1" connectable="0" parent="gHJDH7lQnEutCBeiMlI1-169">
          <mxGeometry x="-0.1333" y="-1" relative="1" as="geometry">
            <mxPoint x="-31" as="offset" />
          </mxGeometry>
        </mxCell>
        <mxCell id="gHJDH7lQnEutCBeiMlI1-167" value="Ustaw status: Aborting,&lt;br&gt;ustaw wyjścia Q1 i Q2 na false" style="rounded=0;whiteSpace=wrap;html=1;" vertex="1" parent="WIyWlLk6GJQsqaUBKTNV-1">
          <mxGeometry x="937.54" y="279.99" width="180" height="60" as="geometry" />
        </mxCell>
        <mxCell id="gHJDH7lQnEutCBeiMlI1-173" style="edgeStyle=orthogonalEdgeStyle;rounded=0;orthogonalLoop=1;jettySize=auto;html=1;entryX=0.5;entryY=0;entryDx=0;entryDy=0;" edge="1" parent="WIyWlLk6GJQsqaUBKTNV-1" source="gHJDH7lQnEutCBeiMlI1-168" target="gHJDH7lQnEutCBeiMlI1-172">
          <mxGeometry relative="1" as="geometry" />
        </mxCell>
        <mxCell id="gHJDH7lQnEutCBeiMlI1-174" value="Tak" style="edgeLabel;html=1;align=center;verticalAlign=middle;resizable=0;points=[];" vertex="1" connectable="0" parent="gHJDH7lQnEutCBeiMlI1-173">
          <mxGeometry x="-0.2006" y="2" relative="1" as="geometry">
            <mxPoint x="13" as="offset" />
          </mxGeometry>
        </mxCell>
        <mxCell id="gHJDH7lQnEutCBeiMlI1-168" value="Czy wystawiona komenda: Clear" style="rhombus;whiteSpace=wrap;html=1;shadow=0;fontFamily=Helvetica;fontSize=12;align=center;strokeWidth=1;spacing=6;spacingTop=-4;" vertex="1" parent="WIyWlLk6GJQsqaUBKTNV-1">
          <mxGeometry x="952.54" y="410" width="150" height="120.03" as="geometry" />
        </mxCell>
        <mxCell id="gHJDH7lQnEutCBeiMlI1-176" style="edgeStyle=orthogonalEdgeStyle;rounded=0;orthogonalLoop=1;jettySize=auto;html=1;" edge="1" parent="WIyWlLk6GJQsqaUBKTNV-1" source="gHJDH7lQnEutCBeiMlI1-172">
          <mxGeometry relative="1" as="geometry">
            <mxPoint x="1027.54" y="850.0000000000002" as="targetPoint" />
            <Array as="points">
              <mxPoint x="1175.04" y="620" />
              <mxPoint x="1175.04" y="850" />
            </Array>
          </mxGeometry>
        </mxCell>
        <mxCell id="gHJDH7lQnEutCBeiMlI1-177" value="State: 20" style="edgeLabel;html=1;align=center;verticalAlign=middle;resizable=0;points=[];" vertex="1" connectable="0" parent="gHJDH7lQnEutCBeiMlI1-176">
          <mxGeometry x="-0.7934" y="-8" relative="1" as="geometry">
            <mxPoint x="-6" as="offset" />
          </mxGeometry>
        </mxCell>
        <mxCell id="gHJDH7lQnEutCBeiMlI1-172" value="Ustaw status:&lt;br&gt;Clearing" style="rounded=0;whiteSpace=wrap;html=1;" vertex="1" parent="WIyWlLk6GJQsqaUBKTNV-1">
          <mxGeometry x="967.54" y="590" width="120" height="60" as="geometry" />
        </mxCell>
      </root>
    </mxGraphModel>
  </diagram>
</mxfile>
